<?xml version="1.0" encoding="UTF-8"?>
<svg id="Warstwa_2" data-name="Warstwa 2" xmlns="http://www.w3.org/2000/svg" viewBox="0 0 152.09 156.54">
  <defs>
    <style>
      .cls-1 {
        fill: #efefef;
      }
    </style>
  </defs>
  <g id="Warstwa_1-2" data-name="Warstwa 1">
    <g>
      <path class="cls-1" d="M151.62,6.57l-35.09,18.32.02,61.82,35.08-18.83-.02-61.31ZM120.63,79.89l-.02-52.52,26.93-14.06v52.13s-26.91,14.45-26.91,14.45Z"/>
      <path class="cls-1" d="M38.66,94.72l.02,61.82,35.08-18.83-.02-61.31-35.09,18.32ZM42.76,149.72l-.02-52.52,26.93-14.06v52.13s-26.91,14.45-26.91,14.45Z"/>
      <path class="cls-1" d="M112.62,24.91L78.16,6.75l-.02,60.9,34.43,18.92.05-61.67ZM99.14,56.18l-7.64-3.67v-16.94s7.65,3.71,7.65,3.71v16.9Z"/>
      <path class="cls-1" d="M152.07,76.36l-35.09,18.32.02,61.82,35.08-18.83-.02-61.31ZM121.08,149.67l-.02-52.52,26.93-14.06v52.13s-26.91,14.45-26.91,14.45Z"/>
      <path class="cls-1" d="M78.59,137.43l34.43,18.92.05-61.67-34.46-18.16-.02,60.9ZM99.6,109.06v16.9s-7.65-3.67-7.65-3.67v-16.94s7.65,3.71,7.65,3.71Z"/>
      <path class="cls-1" d="M.01,50.16v17.74s35.43,18.79,35.43,18.79l-.03-22.23-15.06-7.83,5.74-5.49,3.93-3.71c1.78-1.78,3.45-3.48,5.42-5.14l.02-17.65L.06,6.6l-.06,20.38,16.51,8.39L.01,50.16Z"/>
      <path class="cls-1" d="M35.42,112.1l.03-17.65L.05,76.43l-.05,20.37,3.7,1.89,4.27,2.17-4.27-2.17,18.23,9.26v19.47l-9.09-4.62v-11.06L.02,105.15v14.84h0s.01,17.73.01,17.73l35.42,18.79-.04-22.24h0v-22.17s0,0,.01-.01Z"/>
      <path class="cls-1" d="M39.39,43.96l-7.3,6.97-4.93,4.58,12.35,6.34.05,24.76,34.14-18.94-.02-25.85.07-.05-.05-35.31-34.3,18.04v19.46ZM43.47,45.71v-1.75s.01-16.99.01-16.99l26.14-13.75.04,26.37-.07.05v2.19s.02,23.44.02,23.44l-25.99,14.42-.03-17.84v-2.49s-2.22-1.14-2.22-1.14l-7.17-3.68.66-.62.02-.02.02-.02,7.3-6.97,1.26-1.21Z"/>
      <polygon class="cls-1" points="9.65 3.11 5.04 4.79 35.45 21.36 9.65 3.11"/>
      <polygon class="cls-1" points="18.22 .01 14.25 1.44 36.82 20.67 18.22 .01"/>
      <polygon class="cls-1" points="69.58 4.79 64.95 3.11 39.16 21.36 69.58 4.79"/>
      <polygon class="cls-1" points="56.39 0 37.78 20.67 60.35 1.44 56.39 0"/>
      <polygon class="cls-1" points="86.91 3.11 82.3 4.79 112.71 21.36 86.91 3.11"/>
      <polygon class="cls-1" points="91.52 1.44 114.09 20.67 95.48 .01 91.52 1.44"/>
      <polygon class="cls-1" points="142.22 3.11 116.42 21.36 146.84 4.79 142.22 3.11"/>
      <polygon class="cls-1" points="133.65 0 115.04 20.67 137.61 1.44 133.65 0"/>
    </g>
  </g>
</svg>